<?xml version="1.0" encoding="UTF-8"?><svg id="Layer_1" xmlns="http://www.w3.org/2000/svg" viewBox="0 0 1000 430.12"><defs><style>.cls-1{fill:none;stroke:#1d1d1b;stroke-miterlimit:10;stroke-width:.8px;}</style></defs><path class="cls-1" d="M84.17,272.03c-25.78,11.11-55.4-15.76-56.78-43.8-1.39-28.04,16.23-53.39,35.53-73.77,26.06-27.51,56.75-50.61,90.38-68.05,4.62-2.4,9.56-4.75,14.76-4.48,10.34,.52,17.5,11.33,18.51,21.63,1.89,19.28-10.98,36.4-19.08,53.99-8.1,17.59-9.11,43.05,8.18,51.78,16.72,8.44,35.79-5.82,47.78-20.22,13.49-16.21,25.1-33.98,34.52-52.85,3.74,13.96-5.72,27.64-9.29,41.64-3.57,14,6.26,34.14,19.76,28.97,5.08-1.95,8.24-6.93,11.03-11.6l57-95.25c-32.1,26.57-50.02,69.35-46.45,110.87,4.78-10.93,9.66-22.02,17.26-31.21,9.41-11.38,25.73-19.51,38.9-12.83,13.17,6.68,11.31,32.01-3.45,32.06,24.48,16.38,63.18,1.91,70.93-26.5-7.05,5.34-14.5,11.21-17.18,19.64s2.25,19.75,11.09,20.05c4.89,.17,9.24-2.92,13.05-5.99,15.85-12.72,30.06-27.47,42.17-43.79,16.52,47.69,11.97,102.25-12.21,146.55-8.52,15.6-19.85,30.39-35.56,38.7s-36.46,8.82-50.29-2.35c-16.65-13.45-18.13-39.77-8.03-58.64,10.1-18.87,29-31.4,48.38-40.49,29.26-13.73,61.33-21.43,93.64-22.46,10.39-.33,21.34-.11,30.44-5.14s15-17.6,9.03-26.11l-17.1,73.78c-5.26-21.81,8.47-46.51,29.77-53.55,5.46,14.15,7.05,29.77,4.56,44.72,19.71-13.02,37.83-28.43,53.86-45.79-9.47,8.22-18.57,18.04-21.05,30.33-2.47,12.29,4.39,27.16,16.76,29.23,13.28,2.23,24.66-10.85,27.66-23.98,2.7-11.85-.32-26.48-11.22-31.84-10.91-5.36-26.85,7.42-20.53,17.79,40.06,10.79,86.35-11.08,103.46-48.87-11.11-4.33-21.95,6.37-29.12,15.9-8.38,11.14-17.03,22.89-19.14,36.67-2.11,13.78,4.8,30.01,18.33,33.38,12.7,3.16,24.99-5.61,35.15-13.85-15.56-21.19-36.43-38.45-60.17-49.76,47.15,17.79,97.42,27.3,147.81,27.95,18.45,.24,41.47,2.13,48.22,19.3,4.77,12.12-2.26,26.32-12.83,33.94-10.57,7.62-23.84,10.2-36.65,12.59-55.83,10.41-111.66,20.81-167.48,31.22-39.12,7.29-83.47,18.28-101.88,53.56,112.75,2.2,225.53,2.69,338.29,1.46-3.62,14.27-13.43,26.85-26.38,33.84,53.77,3.35,107.65,4.79,161.52,4.32"/></svg>