<?xml version="1.0" encoding="UTF-8"?><svg id="Layer_1" xmlns="http://www.w3.org/2000/svg" viewBox="0 0 1000 419.59"><defs><style>.cls-1{fill:none;stroke:#1d1d1b;stroke-miterlimit:10;stroke-width:1.05px;}</style></defs><path class="cls-1" d="M-29.51,25.52c115.49-.03,169.27,.03,284.77,0,8.62,0,19.48,1.58,21.88,9.86,3.44,11.9-13.91,17.89-26.3,17.88l-134.07-.18c-12.29-.02-29.1,4.6-27.76,16.82l43.78,.74c5.15,.09,10.93,.45,14.35,4.3,2.23,2.51,2.95,5.97,3.58,9.27l10,52.22c3.54,18.49,7.06,37.81,1.84,55.9-5.21,18.09-22.1,34.32-40.79,32.07-18.69-2.25-30.48-29.72-15.75-41.45,4.69-3.74,10.78-5.17,16.68-6.27,24.89-4.62,50.55-5.03,75.57-1.23,7.66,1.17,16.32,2.49,22.46-2.24,6.13-4.72,7.06-13.44,7.5-21.17l3.49-61.48c-5.8-6.65-14.92,4.53-15.94,13.29-4.97,42.56,7.51,86.89,33.96,120.6,7.02-14.28,21.51-24.61,37.3-26.59,10.62-1.34,23.95-.4,29.14-9.77,5.98-10.8-9.11-24.11-20.6-19.59-15.95,6.28-13.94,33.1,1.41,40.74,15.35,7.64,34.96-1.27,44.31-15.65,9.35-14.37,10.68-32.46,10.16-49.59-.52-17.14-2.58-34.51,1.03-51.27-13.47,31.37-1.58,67.31,10.8,99.13,4.86,12.5,12.63,27.07,26.03,27.45,15.36,.43,23.55-17.9,25.97-33.07,4.79-30.15,3.19-61.31-4.68-90.81-17.69,20.69-28.24,48.85-22.74,75.51,5.5,26.66,29.67,49.87,56.89,49.24,27.22-.62,51.45-29.88,42.85-55.7-20.65,3.65-30.2,33.96-15.38,48.78,14.82,14.83,45.14,5.28,48.79-15.37,1.52-8.58-.91-17.38-4.17-25.46-4.11-10.2-10.79-20.82-21.5-23.3s-23.44,9.56-17.65,18.92c5.57,9.01,19.12,5.49,29.59,7.08,20.23,3.08,28.5,34.18,12.46,46.89,16.44,10.1,36.57,14.04,55.6,10.87,14.96-2.49,34.87-6.95,41.53,6.67,4.32,8.84-1.65,19.94-10.27,24.69-8.62,4.75-18.95,4.84-28.79,4.8-42.1-.14-84.21-.29-126.31-.43-12.77-.04-29.89,3.92-29.93,16.69-.03,12.54,16.56,16.81,29.09,17.19,85.16,2.58,170.32,5.16,255.48,7.74,8.64,.26,17.89,.73,24.79,5.93s9.36,17.01,2.48,22.24c-3.69,2.8-8.71,2.88-13.34,2.83-31.4-.33-62.8-.65-94.2-.98-6-.06-12.5,.03-17.26,3.68-4.76,3.65-5.87,12.29-.59,15.14,1.68,.91,3.65,1.06,5.56,1.19,95.01,6.7,190.27,10.04,285.52,10.02-14.1-4.08-29.06-8.7-38.5-19.94-9.44-11.24-9.68-31.33,3.22-38.33,17.46-9.46,35.38,11.43,44.35,29.14,5.93-16.97,17.71-37.59,35.36-34.23,14.1,2.68,20.39,21.35,14.64,34.49-5.75,13.15-19.44,21.04-33.09,25.47l172.91-1.16"/></svg>