<?xml version="1.0" encoding="UTF-8"?><svg id="Layer_1" xmlns="http://www.w3.org/2000/svg" viewBox="0 0 1000 1000"><defs><style>.cls-1{fill:none;stroke:#1d1d1b;stroke-miterlimit:10;}</style></defs><path class="cls-1" d="M259.29,0c-42.63,38.97-66.44,87.05-101.41,133.03,48.06,10.21,99.87,1.56,142-23.72-52.27-25.49-107.62-44.65-164.46-56.94,30.37,61.75,77.3,115.25,134.56,153.41,16.18-50.1,7.62-107.55-22.46-150.76-47.49,51.63-72.09,123.59-66.14,193.49,1.18,13.91,5.18,29.98,18.02,35.44,6.92,2.95,14.8,1.97,22.25,.95l115.78-15.93c4.41-.61,9.08-1.18,13.18,.55,9.04,3.82,10.16,17.2,4.63,25.32s-15.14,12.22-24.19,16.03c-61.66,25.92-121.3,56.63-178.2,91.79-28.05,17.33-59.09,43.74-52.9,76.12,37.62-10.23,71.46-33.82,94.08-65.58-3.47-12.51-24.38-9.83-29.97,1.88s-1.02,25.52,3.59,37.65c12.42,32.68,24.84,65.37,37.25,98.05-1.03-29.79,5.59-59.81,19.03-86.41,7.63,21.24,18.34,41.36,31.69,59.55,10.59-16.42,4.98-37.82,4.37-57.35-.61-19.53,10.69-44.05,30.1-41.78-6.15,17.81-12.37,36.84-7.92,55.15,4.46,18.31,24.31,34.13,41.8,27.1,17.05-6.85,21.01-29.32,18.8-47.56-1.62-13.29-6.82-28.29-19.45-32.72-12.64-4.43-28.15,13.33-18.01,22.08,13.44,16.34,39.1-.18,52.82-16.3l12.57-14.77,5.48,62.58c.83,9.46,5.32,22.01,14.69,20.47,5.11-.84,8.31-5.85,10.66-10.46,6.22-12.21,11.14-25.09,14.64-38.33-1.79,19.73,1.51,39.9,9.48,58.04,1.65,3.75,3.77,7.69,7.5,9.37,7.53,3.39,15.32-4.38,18.92-11.81,17.42-36.03,7.31-88.04,41.09-109.5-12.36-11.43-35.94-5.09-40.9,10.99,16.95,6.32,35.57,8.09,53.41,5.09-9.04-17.2-22.38-32.13-38.47-43.02-8.39,11.89-17.21,26.04-13.14,40.01,4.07,13.97,28.97,17.89,31.36,3.54,1.64-9.88-8.06-22.4-.14-28.53,44.68,3.14,90.32,20.09,118.55,54.87,28.23,34.78,34,89.31,5.69,124.03-18.56,22.77-47.72,33.84-76.09,41.48-74.96,20.17-154.55,22.94-230.73,8.02,6.56-21.41,20.47-40.49,38.84-53.29,16.15,68.89-11.04,146.03-66.81,189.58,12.4-50.02,35.65-97.33,67.68-137.7,11.47,35.71,21.14,72,28.97,108.68-7.49-13.86-15.3-28.1-27.55-38-12.25-9.9-30.22-14.48-43.99-6.84,39.7,12.37,83.14,12.42,122.87,.15-18.35,9.6-27.43,33.85-19.88,53.14l21.89-29.29c-5.61,9.2,.3,23.13,10.81,25.51,10.51,2.37,21.83-7.67,20.72-18.39,14.63,11.25,39.54,3.29,44.93-14.37-15.41-3.71-27.76,18.28-19.43,31.76,8.33,13.48,28.45,15.55,42.35,7.94s22.56-22.15,28.66-36.77,10.42-30.15,18.88-43.55c-18.1-2.99-37.58,5.16-48.16,20.14,11.56,12.06,26.43,20.49,38.44,32.11,12.01,11.62,21.3,28.52,16.94,44.65-4.36,16.13-27.85,25.64-38.73,12.96,25.81,.92,51.77-10.63,68.38-30.4,6.36-7.57,9.61-21.95,.2-25.01-7.66-2.49-14.04,6.33-16.55,13.99-2.73,8.31-4.02,18.46,1.86,24.94,9.12,10.05,28.26-.12,28.7-13.68,.44-13.56-12.1-24.64-25.3-27.77,11.86-7.89,29.14-6.31,39.36,3.61,10.22,9.92,12.33,27.15,4.8,39.24,3.14-10.38,12.69-18.51,23.44-19.94l4.28,27.88c-.47-9.62,3.4-19.37,10.33-26.06,4.94,5.43,7.27,13.15,6.17,20.41,20.91-.92,41-13.09,51.49-31.21-11.11-10.55-32.62-5.13-37.41,9.42s9.31,31.68,24.51,29.79c6.96-.87,13.09-4.85,18.77-8.95,39.14-28.29,69.86-68.07,87.36-113.08-36.34,2.98-71.6,17.94-99,42.01,33.69,13.02,69.29,21.09,105.31,23.87-25.55-28-54.85-52.58-86.88-72.85-1.82,30.41,6.27,61.34,22.75,86.96,2.71,4.21,5.88,8.48,10.5,10.42,15.2,6.36,25.86-14.59,34.72-28.48,15.04-23.57,47.87-33.87,73.68-23.11,25.81,10.76,41.6,41.33,35.44,68.61-9.32,41.26-56.39,60.01-97.2,71.15-105.13,28.69-212.09,50.68-320.01,65.79-19.27,2.7-43.18,9.46-45.91,28.73,96.57-3.55,193.14-7.1,289.7-10.65,11.92-.44,28,2.65,28.58,14.57-40.04,6-80.09,12-120.13,17.99-13.59,2.03-31.4,10.03-27.74,23.27,45.95,2.29,91.97,3.31,137.98,3.04,6.3-.04,13.15-.28,18.03-4.28,4.4-3.6,6.16-9.43,7.69-14.9,7.37-26.24,14.74-52.48,22.11-78.71,16.96,41.53,22.73,87.58,16.54,132.01-38.43-31.29-72.48-67.94-100.86-108.56,35.94-2.92,72.29-.85,107.67,6.12,8.11,1.6,17.97,5.44,18.39,13.7,.29,5.64-4.24,10.25-8.53,13.93-30.07,25.77-65.63,45.09-103.62,56.29,71.41-59.38,190.13-49.12,250.3,21.63"/></svg>