<?xml version="1.0" encoding="UTF-8"?><svg id="Layer_1" xmlns="http://www.w3.org/2000/svg" viewBox="0 0 1000 1000"><defs><style>.cls-1{fill:none;stroke:#1d1d1b;stroke-miterlimit:10;}</style></defs><path class="cls-1" d="M508.06-6.49l62.71,19.06c9.44,2.87,20.34,7.22,22.63,16.81,2.48,10.41-6.87,19.64-15.71,25.66-79.05,53.89-247.98,77.22-268.42,97.63-20.44,20.41,116.4,3.68,174.5-1.3,101.09-8.65,290.34-45.14,303.26-25.96s-42.53,34.56-69.92,40.03c-215.72,43.06-530.82,88.67-537.73,103.11-6.91,14.44,19.78,4.44,82.59-9.91,217.83-49.74,441.37-74.41,664.81-73.36,4.62,.02,9.55,.15,13.33,2.79,10.1,7.04,3.37,22.95-4.82,32.14-65.97,73.98-172.51,92.69-270.6,107.02-119.94,17.53-239.89,35.06-359.83,52.58-22.75,3.32-60.19,21.97-59.74,28.93,.45,6.97,34.23,4.02,51.34,6.03,4.54,.53,9.71,1.45,12.09,5.36,4.62,7.59-5.59,15.42-13.92,18.51-34.18,12.69-97.47,20.99-102.54,38.06-5.08,17.07,114.09,6.55,170.37-2.45-24.22-22.15-8.21-65.55,20.06-82.21,40.22-23.7,98.4-8.58,122,31.71,14.57-30.82,50.01-51.15,83.66-45.7,33.65,5.45,61.48,37.94,59.35,71.96-2.89,46.14-49.95,73.98-86.2,102.67-27.92,22.09-52.02,48.98-70.93,79.14,13.38-31.86-16.09-65.29-45.82-82.9s-65.69-33.34-76.47-66.16c-2.21-6.73-3.13-14.21-.57-20.82,2.9-7.49,9.79-12.69,16.86-16.51,13.17-7.12,28.85-10.85,43.27-6.83,14.42,4.02,26.77,17.15,26.75,32.12-.02,14.97-15.75,30.41-29.73,25.05-40.92-15.71-18.64-38.41-3.35-29.47,46.78,27.34-222.17,115.37-229.08,96.56-13.88-37.8,132.23-6.13,197.81,2.04,11.91,1.49,51.14,6.41,42.76,42.25-8.38,35.84-166.77-3.71-116.58-19.35,102.82-32.05-299.08,332.7-44.74,248.58,32.29-10.68,78.77-75.14,74.02-95.59-4.75-20.46-55.96,62.45-70,92.22-2.09,4.43-.09,8.67,4.32,9.16,35.21,3.96,122.12-39.54,120.4-60.91s-33.96,15.54-27.67,32.36,34.4,14.99,37.2-2.91c.89-5.7-1.16-12.39-6.06-14.65-4.89-2.27-9.94,2.42-10.34,8.25-.4,5.82,109.71-18.92,87.82-28.99-21.88-10.07-24.7,51.91-8.31,49.45s56.35-43.59,51.51-48.5c-4.83-4.91-32.21,26.7-23.25,42.48,7.44,13.11,25.59,9.86,38.9,4.53,38.35-15.34,85.62-22.65,80-50.73-3.16-15.82-43.52-1.98-47.87,28.48-8.14,57.01,180.79-51.43,339.19-18.05,12.14,2.56,24.97,8.95,29.91,21.21,7.42,18.43-8.46,37.62-23.49,49.39-132.68,103.89-262.63,29.39-417.82,85.53-14.25,5.16-29.68,11.97-36.4,26.57-6.71,14.59,3.43,37.35,18.13,33.97"/></svg>